<?xml version="1.0" encoding="utf-8"?>
<!-- Generator: Adobe Illustrator 26.0.1, SVG Export Plug-In . SVG Version: 6.00 Build 0)  -->
<svg version="1.1" id="Camada_1" xmlns="http://www.w3.org/2000/svg" xmlns:xlink="http://www.w3.org/1999/xlink" x="0px" y="0px"
	 viewBox="0 0 512 512" style="enable-background:new 0 0 512 512;" xml:space="preserve">
<g>
	<path d="M441.95,402.75c-0.17,1.01-0.14,0.88-0.31,1.89c-7.45,0.67-14.89,1.54-22.36,1.98c-29.1,1.74-58.21,3.37-87.32,4.92
		c-2.47,0.13-5.09-0.34-7.47-1.07c-11.19-3.41-22.37-3-33.75-0.9c-22.83,4.2-45.68,8.3-68.6,11.95
		c-16.19,2.58-32.38,0.84-48.56-1.18c-27.87-3.47-55.78-6.65-83.7-9.7c-5.22-0.57-7.17-2.28-7.14-7.87
		c0.28-44.4,0.31-88.79,0.19-133.19c-0.01-5.51,1.31-8.39,7.26-9.5c19.28-3.6,38.4-8.12,57.71-11.5c6.92-1.21,14.24-0.19,22.13-0.19
		c0-2.54,0-4.81,0-7.07c0-38.28,0.08-76.56-0.09-114.85c-0.03-5.97,1.08-8.87,8.06-9.65c37.65-4.24,75.4-7.66,113.24-5.58
		c19.49,1.07,38.78,5.66,58.15,8.75c4.94,0.79,6.57,3.66,6.54,8.88c-0.22,37.22,0.03,74.45-0.14,111.67
		c-0.02,4.98,1.35,6.9,6.43,7.68c17.31,2.67,34.51,5.98,51.78,8.89c4.79,0.81,6.76,3.07,6.65,8.1c-0.88,40.59-1.5,81.19-2.45,121.78
		c-0.1,4.26,0.59,6.21,5.03,7.6C429.69,396.63,435.73,399.96,441.95,402.75z M300.4,265.28c1.05-45.28,2.07-89.57,3.12-134.63
		c-41.96-1.18-83.22-2.34-124.53-3.5c0,44.15,0,86.8,0,130.28C219.32,260.05,259.35,262.63,300.4,265.28z M200.26,281.35
		c-35.29-3.63-71.31-7.34-107.99-11.11c-1.52,45.09-2.81,88.5-0.37,132.14c36.24,4.15,71.63,8.21,108.36,12.42
		C200.26,370.26,200.26,326.77,200.26,281.35z M410.72,387.73c0.72-39.93,1.44-79.47,2.16-119.21c-25.54,2.52-50.25,4.96-75.73,7.47
		c-1.04,42.57-2.05,84.41-3.08,126.75C360.48,397.57,385.48,392.67,410.72,387.73z M268.65,391.71
		c19.35,3.64,37.93,7.13,56.84,10.69c1.12-42.63,2.23-84.59,3.38-128.17c-19.16,0-38.07,0-57.57,0
		C270.43,312.58,269.55,351.82,268.65,391.71z M262.18,271.51c-18.6-3.13-34.57,6.12-51.71,9.61c-0.67,44.26-1.34,88.03-2.03,133.54
		c16.33-6.55,31.48-12.75,46.74-18.68c4.17-1.62,5.54-4.07,5.59-8.49c0.31-27.25,0.97-54.5,1.39-81.76
		C262.32,294.57,262.18,283.4,262.18,271.51z M312.01,130.9c-1.02,44.71-2.02,88.54-3.05,133.32c11.87-3.19,22.76-6.34,33.78-8.97
		c4.41-1.05,5.51-3.22,5.48-7.47c-0.25-37.59-0.29-75.18-0.43-112.78c0-1.17-0.4-2.34-0.71-4.11
		C335.43,130.9,324.11,130.9,312.01,130.9z M116.36,263.52c29.54,3.52,57.17,7.15,84.89,9.86c6.15,0.6,12.61-2.06,18.93-3.22
		c-0.12-0.54-0.24-1.08-0.35-1.62c-14.12-0.96-28.24-1.96-42.36-2.83c-3.68-0.23-6.63-0.73-7.13-5.36
		c-0.13-1.23-2.08-3.02-3.43-3.26C149.93,254.02,134.25,260.35,116.36,263.52z M388.72,262.44c-0.05-0.48-0.1-0.96-0.15-1.44
		c-10.33-1.77-20.65-3.55-30.95-5.31c-4.99,8.92-15.48,6.47-24.18,12.11C353.09,265.89,370.91,264.17,388.72,262.44z"/>
	<path d="M374.08,136.4c-0.7-0.64-2.44-1.48-2.58-2.52c-0.22-1.62,0.07-4.15,1.15-4.98c6.65-5.14,13.5-10.04,20.5-14.68
		c1.16-0.77,4.03-0.55,4.97,0.37c0.99,0.97,1.4,4.37,0.69,4.92c-7.45,5.77-15.18,11.19-22.85,16.67
		C375.67,136.39,375.15,136.29,374.08,136.4z"/>
	<path d="M378.57,97.31c-1.31,2.3-2.25,4.15-3.37,5.87c-2.64,4.05-5.06,8.31-8.21,11.93c-1.21,1.39-4.17,1.25-6.33,1.81
		c-0.22-2-1.31-4.5-0.51-5.93c2.98-5.29,6.41-10.37,10.09-15.22c1-1.31,3.48-2.06,5.25-2.01C376.5,93.79,377.46,95.95,378.57,97.31z
		"/>
	<path d="M383.62,144.9c6.7,1.69,12.05,2.75,17.17,4.51c1.43,0.49,3.38,3.68,2.95,4.47c-0.87,1.61-3.38,3.6-4.9,3.37
		c-5.34-0.81-10.66-2.2-15.75-4.03c-1.53-0.55-3.33-3.37-3.13-4.9C380.17,146.82,382.76,145.64,383.62,144.9z"/>
	<path d="M229.72,216.5c9.84,0,19.91,0.01,29.97-0.01c2.96-0.01,5.99-0.56,8.84-0.02c1.59,0.3,3.94,2.28,3.98,3.57
		c0.05,1.43-2,3.1-3.43,4.33c-0.67,0.58-2.03,0.49-3.07,0.48c-16.25-0.2-32.5-0.32-48.74-0.81c-2.04-0.06-4.02-2.11-6.03-3.23
		c1.31-1.96,2.2-4.51,4-5.77c11.54-8.05,21.9-17.33,29.67-29.09c2.84-4.3,5.08-9.29,6.39-14.28c3.04-11.56-7.04-20.72-18.36-16.63
		c-4.17,1.51-7.53,5.16-11.53,7.31c-1.64,0.88-4.02,0.39-6.06,0.53c-0.06-1.92-0.87-4.27-0.06-5.68
		c5.24-9.04,19.65-13.73,30.3-10.21c9.85,3.26,15.19,12.29,14.25,24.07c-0.83,10.4-6.16,18.76-12.58,26.42
		C241.84,203.94,235.84,209.91,229.72,216.5z"/>
	<path d="M146.51,376.2c5.4,0.69,10.02,0.84,14.35,2.02c1.88,0.52,3.19,3.16,4.75,4.84c-2.01,1.15-4.11,3.42-6.03,3.27
		c-12.16-0.93-24.3-2.22-36.38-3.9c-1.73-0.24-3.07-3.22-4.59-4.93c1.78-1.15,3.52-3.18,5.35-3.27c4.31-0.22,8.67,0.48,13.59,0.85
		c0-22.16,0-44.03,0-67.02c-2.12,2-3.91,3.63-5.64,5.33c-4.5,4.44-8.78,9.14-13.59,13.22c-1.26,1.07-4.13,0.23-6.26,0.27
		c0.14-2.1-0.5-4.79,0.57-6.17c2.78-3.59,6.3-6.62,9.54-9.86c4.78-4.78,9.42-9.72,14.42-14.25c1.88-1.7,4.63-2.45,6.99-3.63
		c0.97,2.65,2.65,5.27,2.79,7.97c0.39,7.4,0.14,14.83,0.14,22.24C146.51,340.61,146.51,358.04,146.51,376.2z"/>
	<path d="M382.8,333.85c14.18,10.1,17.36,21.18,10.15,33.2c-6.72,11.21-22.38,16.6-38.26,10.05c-1.41-0.58-1.82-3.57-2.7-5.44
		c1.91-0.73,3.81-2.03,5.74-2.09c6.59-0.21,13.45,1.17,19.72-0.24c7.36-1.66,11.04-8.75,10.56-16.12
		c-0.39-5.96-4.25-9.81-12.08-11.95c-2.03-0.55-4.13-0.86-6.19-1.35c-2.86-0.67-6.96,0.44-7.15-4.35c-0.19-4.75,3.98-3.75,6.69-4.96
		c4.14-1.84,8.65-3.7,11.78-6.79c5.78-5.7,5.47-15.53,0.28-21.4c-4.52-5.12-11.58-5.43-19.02-1.47c-1.71,0.91-4.38,0.04-6.61-0.01
		c0.9-2.47,1.07-5.94,2.84-7.25c7.03-5.18,15.03-5.61,22.74-1.69c8.81,4.48,12.34,12.38,12.14,22.01
		C393.26,322.15,389.53,328.57,382.8,333.85z"/>
</g>
</svg>
