<?xml version="1.0" encoding="utf-8"?>
<!-- Generator: Adobe Illustrator 26.0.1, SVG Export Plug-In . SVG Version: 6.00 Build 0)  -->
<svg version="1.1" id="Camada_1" xmlns="http://www.w3.org/2000/svg" xmlns:xlink="http://www.w3.org/1999/xlink" x="0px" y="0px"
	 viewBox="0 0 1920 1080" style="enable-background:new 0 0 1920 1080;" xml:space="preserve">
<style type="text/css">
	.st0{fill:#86CD6E;}
	.st1{fill:#3F6631;}
	.st2{fill:#87CD6E;}
	.st3{fill:#406632;}
	.st4{fill:#437228;}
	.st5{fill:#98BD86;}
	.st6{fill:#FCFCFC;}
</style>
<g>
	<path class="st0" d="M625.15,430.56c-6.54-7.99-6.7-17.48-5.83-26.97c0.85-9.3,3.57-18.24,6.87-26.96
		c0.54-1.43,0.72-3.31,3.33-2.33c9.03,3.38,18.2,6.48,25.97,12.44c1.96,1.51,3.71,3.35,5.36,5.21c3.82,4.3,5.69,8.55,2.95,14.74
		c-4.02,9.07-6.54,18.81-10.19,28.06c-1.79,4.53-1.39,6.49,3.72,7.94c9.4,2.66,18.68,5.86,27.15,10.97
		c9.83,5.94,12.84,13.04,9.33,24.02c-2.31,7.25-5.43,14.25-8.15,21.38c-0.78,2.05-1.73,2.77-4.11,1.84
		c-8.29-3.28-15.82-7.68-22.26-13.88c-2.11-2.03-4.18-4.11-6.27-6.17c-7.32-10.7-8.36-22.49-5.65-34.76
		c0.87-3.94-0.18-5.74-3.96-6.91C636.93,437.19,630.3,435.4,625.15,430.56z"/>
	<path class="st0" d="M618.26,475.6c3.16,5.39,2.54,11.52,3.23,17.35c1.14,9.6,1.2,19.24-1.49,28.67
		c-2.68,9.42-6.99,11.73-16.29,8.66c-8.32-2.75-15.46-7.56-22.24-13.01c-4.14-3.33-5.12-7.27-4.01-12.36
		c2.59-11.89,6.68-23.26,11.37-34.42c1.54-3.67,1.01-5.07-2.9-6.34c-7.56-2.46-15.06-5.19-22.17-8.82
		c-14.07-7.19-18.05-15.23-14.42-30.43c1.42-5.94,3.94-11.62,5.79-17.46c0.98-3.11,2.62-3.04,5.27-2
		c9.29,3.65,17.34,9.09,24.35,16.14c1.36,1.37,2.73,2.72,4.09,4.07c7.21,11.12,8.18,23.08,4.69,35.6c-0.87,3.13,0.62,4.52,3.29,5.57
		c4.92,1.93,10.21,2.84,14.83,5.56C613.38,474.41,616.47,473.67,618.26,475.6z"/>
	<path class="st1" d="M771.36,577.98c6.13-16.63,12.04-32.66,17.96-48.7c0.52-1.4,1.08-2.79,1.59-4.2c2.95-8.09,2.96-7.82,11.66-8.2
		c4.24-0.18,5.97,1.31,7.36,5.19c6.1,17.05,12.56,33.98,18.87,50.95c0.51,1.38,0.92,2.8,1.61,4.94c-4.99,0-9.55-0.01-14.1,0.01
		c-2.82,0.01-2.35-2.47-2.84-3.98c-2.61-7.97-2.55-8-10.93-8c-0.67,0-1.33,0-2,0c-9.5,0-9.6-0.03-12.3,8.77
		c-0.69,2.24-1.45,3.4-4.01,3.27C780.24,577.83,776.25,577.98,771.36,577.98z"/>
	<path class="st1" d="M639.97,516.65c5.69,0,11.56-1.64,15.41,0.45c3.99,2.17,3.42,8.81,4.79,13.5c2.79,9.54,5.37,19.15,8.39,30.04
		c3.77-13.7,7.35-26.1,10.52-38.6c1.06-4.17,2.61-6.28,7.29-5.62c3.41,0.48,6.94,0.09,10.97,0.09c-2.17,6.39-4.19,12.33-6.2,18.27
		c-4.41,13.06-8.87,26.1-13.17,39.19c-0.84,2.55-1.91,3.6-4.83,3.61c-12.72,0.05-12.74,0.18-16.79-11.9
		C650.93,549.5,645.53,533.29,639.97,516.65z"/>
	<path class="st1" d="M749.78,516.52c6.66,0,13.35,0.36,19.98-0.12c4.67-0.34,5.32,1.38,5.37,5.53c0.05,4.44-0.98,6.31-5.67,5.68
		c-2.95-0.39-6.01,0.14-8.98-0.13c-3.14-0.29-3.91,0.87-3.87,3.9c0.16,13.83-0.06,27.66,0.15,41.48c0.06,3.66-0.79,4.83-4.64,4.75
		c-10.49-0.22-10.49-0.02-10.49-10.26c0-11.99-0.1-23.99,0.07-35.98c0.05-3.1-0.84-4.16-3.93-3.88c-2.81,0.25-5.7-0.24-8.48,0.12
		c-4.71,0.61-6.2-0.86-6.15-5.83c0.05-4.59,1.42-5.56,5.66-5.34C735.77,516.77,742.78,516.52,749.78,516.52z"/>
	<path class="st1" d="M850,541.36c0,6.99,0.14,13.99-0.07,20.98c-0.09,3.12,0.6,4.42,4.05,4.25c5.98-0.29,11.99,0.04,17.98-0.14
		c2.72-0.08,3.71,0.62,3.72,3.54c0.03,7.51,0.19,7.51-7.2,7.51c-9.99,0-19.99-0.1-29.97,0.06c-2.86,0.05-3.64-0.84-3.62-3.65
		c0.12-17.98,0.1-35.97,0.02-53.95c-0.01-2.45,0.51-3.41,3.26-3.51C850,516.01,850,515.9,850,527.87
		C850,532.36,850,536.86,850,541.36z"/>
	<path class="st2" d="M899.89,571.47c-7.56-0.09-6.64,0.91-6.74-6.58c0-0.17,0-0.33,0-0.5c0-9.1-0.02-9.51-9.21-9.02
		c-5.7,0.3-5.16-2.79-5.11-6.44c0.04-3.55-0.73-6.78,5.07-6.46c9.22,0.51,9.17,0.09,9.3-8.92c0.03-2.2-1.29-5.52,1.15-6.39
		c3.53-1.26,7.6-0.96,11.32-0.07c1.67,0.4,0.99,2.58,1.1,4.01c0.27,3.62-1.45,8.1,0.77,10.63c2.13,2.43,6.61,0.79,10.04,0.82
		c2.62,0.02,3.35,0.91,3.45,3.48c0.35,9.16,0.43,9.46-8.68,9.07c-4.85-0.21-6.2,1.59-5.6,5.94c0.16,1.14,0.04,2.33,0.02,3.49
		C906.68,572.5,907.67,571.35,899.89,571.47z"/>
	<path class="st3" d="M703,547.02c0-8.98,0.11-17.96-0.06-26.94c-0.05-2.84,0.83-3.59,3.63-3.64c11.38-0.19,11.38-0.29,11.38,10.85
		c0,15.3-0.11,30.6,0.08,45.9c0.04,3.53-1,4.43-4.45,4.4C703,577.47,703,577.62,703,566.97C703,560.32,703,553.67,703,547.02z"/>
	<path class="st4" d="M611.07,473.26c-5.72-2.06-11.42-4.2-17.18-6.14c-2.4-0.81-2.84-1.87-2.12-4.36
		c3.51-12.17,3.59-24.11-3.25-35.37c-0.36-0.6-0.34-1.25,0.3-1.74c10.97,9.43,20.64,19.9,26.46,33.41c1.31,3.04,2.47,6.12,2.83,9.44
		c0.61,2.07,1.33,4.75-0.31,5.98C615.73,476.04,613.16,474.66,611.07,473.26z"/>
	<path class="st4" d="M625.15,430.56c7.41,3.34,14.9,6.48,22.7,8.8c1.2,0.36,2.38,0.79,1.88,2.33c-4.34,13.52-2.21,26.48,3.28,39.16
		c-11.1-10.27-19.4-22.5-25.55-36.28C625.46,440.08,624.56,435.46,625.15,430.56z"/>
	<path class="st5" d="M611.07,473.26c0.16,0.03,0.33,0.06,0.49,0.09c6.29,1.48,6.29,1.48,6.54-4.85c1.35,2.34,1.67,4.7,0.15,7.1
		C615.68,475.38,612.79,476.1,611.07,473.26z"/>
	<path class="st6" d="M801.43,535.62c1.77,5.48,3.55,10.95,5.28,16.43c0.34,1.07,0.86,2.4-1.11,2.43c-3.15,0.04-6.3,0.08-9.45-0.02
		c-1.98-0.06-1.31-1.56-1.01-2.54c1.69-5.48,3.47-10.93,5.22-16.4C800.72,535.55,801.08,535.58,801.43,535.62z"/>
</g>
</svg>
